<?xml version="1.0" standalone="no"?>
<!DOCTYPE svg PUBLIC "-//W3C//DTD SVG 20010904//EN"
 "http://www.w3.org/TR/2001/REC-SVG-20010904/DTD/svg10.dtd">
<svg version="1.0" xmlns="http://www.w3.org/2000/svg"
 width="500.000000pt" height="500.000000pt" viewBox="0 0 500.000000 500.000000"
 preserveAspectRatio="xMidYMid meet">
<metadata>
Created by potrace 1.14, written by Peter Selinger 2001-2017
</metadata>
<g transform="translate(0.000000,500.000000) scale(0.100000,-0.100000)"
fill="#000000" stroke="none">
<path d="M180 4991 c-86 -26 -153 -95 -170 -175 -8 -36 -10 -708 -8 -2346 l3
-2295 22 -41 c33 -61 96 -111 157 -124 36 -8 708 -10 2346 -8 l2295 3 41 22
c61 33 111 96 124 157 8 36 10 708 8 2346 l-3 2295 -22 41 c-30 56 -94 109
-148 123 -51 13 -4603 14 -4645 2z m3197 -386 c45 -32 67 -158 79 -450 9 -241
19 -260 204 -385 158 -108 254 -209 315 -333 87 -179 97 -267 61 -577 -44
-374 -46 -394 -56 -431 -18 -66 -103 -77 -131 -16 -8 18 -5 82 11 248 41 407
37 606 -11 701 -32 62 -105 135 -168 165 -53 26 -63 28 -186 27 -325 -3 -644
-111 -927 -314 -88 -63 -292 -269 -367 -370 -315 -426 -388 -841 -211 -1205
61 -126 180 -272 422 -520 123 -126 238 -250 255 -275 96 -141 151 -339 114
-409 -21 -38 -41 -20 -74 69 -52 137 -144 261 -183 246 -23 -9 -16 -36 27
-103 43 -66 88 -166 89 -195 0 -30 -23 -20 -55 23 -39 53 -123 130 -194 178
-58 40 -269 153 -626 336 -115 59 -255 137 -310 173 -121 80 -322 270 -312
295 10 27 48 20 152 -29 93 -43 134 -52 142 -28 2 6 -33 34 -79 64 -215 140
-385 361 -468 608 -177 528 -86 1130 236 1561 41 56 81 118 88 138 7 21 16
112 20 205 9 216 31 421 51 478 26 75 84 120 154 120 42 0 187 -76 330 -172
67 -46 143 -96 169 -113 l45 -30 256 -1 c259 0 309 -5 494 -46 l98 -21 107
104 c127 125 192 179 291 248 78 53 111 62 148 36z m-164 -1769 c44 -18 69
-49 108 -130 49 -100 97 -144 200 -184 99 -38 131 -65 132 -116 1 -41 -22 -70
-73 -95 -46 -21 -48 -55 -5 -59 56 -7 84 -54 49 -83 -10 -8 -35 -18 -58 -24
-52 -13 -59 -39 -19 -71 l28 -23 -30 -58 c-38 -73 -236 -274 -317 -322 -149
-87 -309 -123 -462 -103 -103 13 -200 40 -293 82 -89 40 -87 60 12 156 90 87
195 158 311 210 61 27 84 42 82 53 -3 12 -16 16 -55 15 -72 -2 -178 -56 -283
-143 -130 -109 -167 -131 -217 -131 -60 0 -97 22 -129 76 -36 61 -25 85 53
114 49 19 175 53 275 74 35 8 92 56 80 68 -20 20 -248 -30 -396 -86 -37 -14
-72 -26 -76 -26 -12 0 -18 62 -9 87 21 57 151 82 504 97 222 9 270 14 270 25
0 8 -13 19 -30 23 -53 16 -439 12 -565 -6 -140 -19 -140 -19 -140 -2 0 22 97
124 145 152 46 27 180 59 290 70 139 14 193 46 298 176 125 154 179 197 250
198 21 0 52 -6 70 -14z m922 -544 c49 -9 60 -37 20 -52 -28 -11 -251 -12 -300
-1 -32 7 -46 38 -23 52 16 10 246 11 303 1z m-199 -158 c87 -22 248 -103 252
-128 8 -39 -14 -39 -114 2 -55 21 -139 49 -187 62 -88 23 -105 35 -93 65 7 20
60 19 142 -1z m-84 -141 c30 -27 22 -75 -28 -176 -108 -215 -196 -330 -454
-592 -167 -169 -210 -219 -223 -255 -9 -27 -18 -98 -22 -180 -6 -144 -22 -323
-31 -353 -3 -10 -11 -16 -17 -14 -8 2 -14 66 -17 210 -5 215 -12 249 -45 216
-21 -21 -32 -101 -39 -278 -4 -91 -11 -160 -18 -168 -20 -24 -52 -10 -73 32
-17 34 -20 60 -20 185 0 164 10 209 77 350 38 81 51 96 294 340 139 140 264
269 277 285 54 66 127 186 180 292 31 61 62 113 69 116 27 11 72 6 90 -10z"/>
<path d="M3123 2350 c-30 -12 -29 -38 3 -81 14 -19 39 -60 55 -91 43 -84 67
-77 153 41 47 65 57 100 32 120 -18 15 -214 24 -243 11z"/>
</g>
</svg>
